<mxfile host="app.diagrams.net" modified="2024-07-16T18:24:12.835Z" agent="Mozilla/5.0 (Macintosh; Intel Mac OS X 10_15_7) AppleWebKit/537.36 (KHTML, like Gecko) Chrome/126.0.0.0 Safari/537.36" etag="-lX_jPqD_ZNecR-BSXSb" version="24.6.5" type="github">
  <diagram name="Page-1" id="74e2e168-ea6b-b213-b513-2b3c1d86103e">
    <mxGraphModel dx="3395" dy="1710" grid="1" gridSize="10" guides="1" tooltips="1" connect="1" arrows="1" fold="1" page="1" pageScale="1" pageWidth="1100" pageHeight="850" background="none" math="0" shadow="0">
      <root>
        <mxCell id="0" />
        <mxCell id="1" parent="0" />
        <mxCell id="77e6c97f196da883-1" value="Thesis Flow" style="swimlane;html=1;childLayout=stackLayout;startSize=20;rounded=0;shadow=0;labelBackgroundColor=none;strokeWidth=1;fontFamily=Verdana;fontSize=8;align=center;" parent="1" vertex="1">
          <mxGeometry x="70" y="40" width="640" height="1650" as="geometry" />
        </mxCell>
        <mxCell id="77e6c97f196da883-2" value="Student" style="swimlane;html=1;startSize=20;" parent="77e6c97f196da883-1" vertex="1">
          <mxGeometry y="20" width="160" height="1630" as="geometry" />
        </mxCell>
        <mxCell id="FH-egheK_HizLAxa6WL1-56" value="Apply for Topic" style="rounded=1;whiteSpace=wrap;html=1;" vertex="1" parent="77e6c97f196da883-2">
          <mxGeometry x="20" y="130" width="120" height="60" as="geometry" />
        </mxCell>
        <mxCell id="FH-egheK_HizLAxa6WL1-77" value="" style="edgeStyle=orthogonalEdgeStyle;rounded=0;orthogonalLoop=1;jettySize=auto;html=1;" edge="1" parent="77e6c97f196da883-2" source="FH-egheK_HizLAxa6WL1-73" target="FH-egheK_HizLAxa6WL1-76">
          <mxGeometry relative="1" as="geometry" />
        </mxCell>
        <mxCell id="FH-egheK_HizLAxa6WL1-73" value="Meet with advisor" style="whiteSpace=wrap;html=1;rounded=1;" vertex="1" parent="77e6c97f196da883-2">
          <mxGeometry x="20" y="670" width="120" height="60" as="geometry" />
        </mxCell>
        <mxCell id="FH-egheK_HizLAxa6WL1-76" value="Write proposal" style="whiteSpace=wrap;html=1;rounded=1;" vertex="1" parent="77e6c97f196da883-2">
          <mxGeometry x="20" y="808" width="120" height="60" as="geometry" />
        </mxCell>
        <mxCell id="FH-egheK_HizLAxa6WL1-89" value="" style="edgeStyle=orthogonalEdgeStyle;rounded=0;orthogonalLoop=1;jettySize=auto;html=1;" edge="1" parent="77e6c97f196da883-2" source="FH-egheK_HizLAxa6WL1-86" target="FH-egheK_HizLAxa6WL1-88">
          <mxGeometry relative="1" as="geometry" />
        </mxCell>
        <mxCell id="FH-egheK_HizLAxa6WL1-86" value="Write Thesis" style="whiteSpace=wrap;html=1;rounded=1;" vertex="1" parent="77e6c97f196da883-2">
          <mxGeometry x="20" y="1057" width="120" height="60" as="geometry" />
        </mxCell>
        <mxCell id="FH-egheK_HizLAxa6WL1-88" value="Present Thesis 2 weeks before submission" style="whiteSpace=wrap;html=1;rounded=1;" vertex="1" parent="77e6c97f196da883-2">
          <mxGeometry x="20" y="1180" width="120" height="60" as="geometry" />
        </mxCell>
        <mxCell id="FH-egheK_HizLAxa6WL1-95" value="Submit final thesis (Changes state to SUBMITTED)" style="whiteSpace=wrap;html=1;rounded=1;" vertex="1" parent="77e6c97f196da883-2">
          <mxGeometry x="20" y="1425" width="120" height="60" as="geometry" />
        </mxCell>
        <mxCell id="77e6c97f196da883-3" value="Advisor" style="swimlane;html=1;startSize=20;" parent="77e6c97f196da883-1" vertex="1">
          <mxGeometry x="160" y="20" width="160" height="1630" as="geometry" />
        </mxCell>
        <mxCell id="FH-egheK_HizLAxa6WL1-55" style="edgeStyle=orthogonalEdgeStyle;rounded=0;orthogonalLoop=1;jettySize=auto;html=1;exitX=0.5;exitY=1;exitDx=0;exitDy=0;entryX=0.5;entryY=0;entryDx=0;entryDy=0;" edge="1" parent="77e6c97f196da883-3" source="FH-egheK_HizLAxa6WL1-51" target="FH-egheK_HizLAxa6WL1-54">
          <mxGeometry relative="1" as="geometry" />
        </mxCell>
        <mxCell id="FH-egheK_HizLAxa6WL1-51" value="" style="ellipse;whiteSpace=wrap;html=1;rounded=0;shadow=0;labelBackgroundColor=none;strokeWidth=1;fontFamily=Verdana;fontSize=8;align=center;" vertex="1" parent="77e6c97f196da883-3">
          <mxGeometry x="65" y="40" width="30" height="30" as="geometry" />
        </mxCell>
        <mxCell id="FH-egheK_HizLAxa6WL1-54" value="Create Topic" style="rounded=1;whiteSpace=wrap;html=1;" vertex="1" parent="77e6c97f196da883-3">
          <mxGeometry x="20" y="130" width="120" height="60" as="geometry" />
        </mxCell>
        <mxCell id="FH-egheK_HizLAxa6WL1-62" value="" style="edgeStyle=orthogonalEdgeStyle;rounded=0;orthogonalLoop=1;jettySize=auto;html=1;" edge="1" parent="77e6c97f196da883-3" source="FH-egheK_HizLAxa6WL1-58" target="FH-egheK_HizLAxa6WL1-61">
          <mxGeometry relative="1" as="geometry" />
        </mxCell>
        <mxCell id="FH-egheK_HizLAxa6WL1-58" value="Review Application" style="rounded=1;whiteSpace=wrap;html=1;" vertex="1" parent="77e6c97f196da883-3">
          <mxGeometry x="20" y="250" width="120" height="60" as="geometry" />
        </mxCell>
        <mxCell id="FH-egheK_HizLAxa6WL1-68" value="Yes" style="edgeStyle=orthogonalEdgeStyle;rounded=0;orthogonalLoop=1;jettySize=auto;html=1;" edge="1" parent="77e6c97f196da883-3" source="FH-egheK_HizLAxa6WL1-61" target="FH-egheK_HizLAxa6WL1-67">
          <mxGeometry relative="1" as="geometry" />
        </mxCell>
        <mxCell id="FH-egheK_HizLAxa6WL1-61" value="Accepted" style="rhombus;whiteSpace=wrap;html=1;rounded=1;" vertex="1" parent="77e6c97f196da883-3">
          <mxGeometry x="40" y="380" width="80" height="80" as="geometry" />
        </mxCell>
        <mxCell id="FH-egheK_HizLAxa6WL1-67" value="Assign Advisor, Supervisor" style="whiteSpace=wrap;html=1;rounded=1;" vertex="1" parent="77e6c97f196da883-3">
          <mxGeometry x="20" y="524" width="120" height="60" as="geometry" />
        </mxCell>
        <mxCell id="FH-egheK_HizLAxa6WL1-81" value="" style="edgeStyle=orthogonalEdgeStyle;rounded=0;orthogonalLoop=1;jettySize=auto;html=1;" edge="1" parent="77e6c97f196da883-3" source="FH-egheK_HizLAxa6WL1-78" target="FH-egheK_HizLAxa6WL1-80">
          <mxGeometry relative="1" as="geometry" />
        </mxCell>
        <mxCell id="FH-egheK_HizLAxa6WL1-78" value="Give Feedback" style="whiteSpace=wrap;html=1;rounded=1;" vertex="1" parent="77e6c97f196da883-3">
          <mxGeometry x="20" y="808" width="120" height="60" as="geometry" />
        </mxCell>
        <mxCell id="FH-egheK_HizLAxa6WL1-85" value="Yes" style="edgeStyle=orthogonalEdgeStyle;rounded=0;orthogonalLoop=1;jettySize=auto;html=1;" edge="1" parent="77e6c97f196da883-3" source="FH-egheK_HizLAxa6WL1-80" target="FH-egheK_HizLAxa6WL1-84">
          <mxGeometry relative="1" as="geometry" />
        </mxCell>
        <mxCell id="FH-egheK_HizLAxa6WL1-80" value="Sufficient" style="rhombus;whiteSpace=wrap;html=1;rounded=1;" vertex="1" parent="77e6c97f196da883-3">
          <mxGeometry x="40" y="920" width="80" height="80" as="geometry" />
        </mxCell>
        <mxCell id="FH-egheK_HizLAxa6WL1-84" value="Change Thesis State to &quot;IN PROGRESS&quot;" style="whiteSpace=wrap;html=1;rounded=1;" vertex="1" parent="77e6c97f196da883-3">
          <mxGeometry x="20" y="1057" width="120" height="60" as="geometry" />
        </mxCell>
        <mxCell id="FH-egheK_HizLAxa6WL1-92" value="Give Feedback" style="whiteSpace=wrap;html=1;rounded=1;" vertex="1" parent="77e6c97f196da883-3">
          <mxGeometry x="20" y="1290" width="120" height="60" as="geometry" />
        </mxCell>
        <mxCell id="FH-egheK_HizLAxa6WL1-100" value="Write assessment + grade suggestion" style="whiteSpace=wrap;html=1;rounded=1;" vertex="1" parent="77e6c97f196da883-3">
          <mxGeometry x="20" y="1425" width="120" height="60" as="geometry" />
        </mxCell>
        <mxCell id="77e6c97f196da883-4" value="Supervisor" style="swimlane;html=1;startSize=20;" parent="77e6c97f196da883-1" vertex="1">
          <mxGeometry x="320" y="20" width="160" height="1630" as="geometry" />
        </mxCell>
        <mxCell id="FH-egheK_HizLAxa6WL1-105" value="" style="edgeStyle=orthogonalEdgeStyle;rounded=0;orthogonalLoop=1;jettySize=auto;html=1;" edge="1" parent="77e6c97f196da883-4" source="FH-egheK_HizLAxa6WL1-102" target="FH-egheK_HizLAxa6WL1-104">
          <mxGeometry relative="1" as="geometry" />
        </mxCell>
        <mxCell id="FH-egheK_HizLAxa6WL1-102" value="Submit final grade&lt;div&gt;(Changes state to GRADED)&lt;/div&gt;" style="whiteSpace=wrap;html=1;rounded=1;" vertex="1" parent="77e6c97f196da883-4">
          <mxGeometry x="20" y="1425" width="120" height="60" as="geometry" />
        </mxCell>
        <mxCell id="FH-egheK_HizLAxa6WL1-104" value="Submit grade to university (Changes state to FINISHED)" style="whiteSpace=wrap;html=1;rounded=1;" vertex="1" parent="77e6c97f196da883-4">
          <mxGeometry x="20" y="1550" width="120" height="60" as="geometry" />
        </mxCell>
        <mxCell id="77e6c97f196da883-5" value="System" style="swimlane;html=1;startSize=20;" parent="77e6c97f196da883-1" vertex="1">
          <mxGeometry x="480" y="20" width="160" height="1630" as="geometry" />
        </mxCell>
        <mxCell id="FH-egheK_HizLAxa6WL1-63" value="Notify student about rejection" style="whiteSpace=wrap;html=1;rounded=1;" vertex="1" parent="77e6c97f196da883-5">
          <mxGeometry x="20" y="390" width="120" height="60" as="geometry" />
        </mxCell>
        <mxCell id="FH-egheK_HizLAxa6WL1-71" value="Notify student about thesis and advisor" style="whiteSpace=wrap;html=1;rounded=1;" vertex="1" parent="77e6c97f196da883-5">
          <mxGeometry x="20" y="524" width="120" height="60" as="geometry" />
        </mxCell>
        <mxCell id="FH-egheK_HizLAxa6WL1-90" value="Notify other students so they can watch as well" style="whiteSpace=wrap;html=1;rounded=1;" vertex="1" parent="77e6c97f196da883-5">
          <mxGeometry x="20" y="1180" width="120" height="60" as="geometry" />
        </mxCell>
        <mxCell id="FH-egheK_HizLAxa6WL1-57" value="" style="edgeStyle=orthogonalEdgeStyle;rounded=0;orthogonalLoop=1;jettySize=auto;html=1;" edge="1" parent="77e6c97f196da883-1" source="FH-egheK_HizLAxa6WL1-54" target="FH-egheK_HizLAxa6WL1-56">
          <mxGeometry relative="1" as="geometry" />
        </mxCell>
        <mxCell id="FH-egheK_HizLAxa6WL1-60" style="edgeStyle=orthogonalEdgeStyle;rounded=0;orthogonalLoop=1;jettySize=auto;html=1;exitX=0.5;exitY=1;exitDx=0;exitDy=0;entryX=0;entryY=0.5;entryDx=0;entryDy=0;" edge="1" parent="77e6c97f196da883-1" source="FH-egheK_HizLAxa6WL1-56" target="FH-egheK_HizLAxa6WL1-58">
          <mxGeometry relative="1" as="geometry" />
        </mxCell>
        <mxCell id="FH-egheK_HizLAxa6WL1-64" value="" style="edgeStyle=orthogonalEdgeStyle;rounded=0;orthogonalLoop=1;jettySize=auto;html=1;" edge="1" parent="77e6c97f196da883-1" source="FH-egheK_HizLAxa6WL1-61" target="FH-egheK_HizLAxa6WL1-63">
          <mxGeometry relative="1" as="geometry" />
        </mxCell>
        <mxCell id="FH-egheK_HizLAxa6WL1-66" value="No" style="edgeLabel;html=1;align=center;verticalAlign=middle;resizable=0;points=[];" vertex="1" connectable="0" parent="FH-egheK_HizLAxa6WL1-64">
          <mxGeometry x="-0.8333" relative="1" as="geometry">
            <mxPoint x="-4" as="offset" />
          </mxGeometry>
        </mxCell>
        <mxCell id="FH-egheK_HizLAxa6WL1-72" value="" style="edgeStyle=orthogonalEdgeStyle;rounded=0;orthogonalLoop=1;jettySize=auto;html=1;" edge="1" parent="77e6c97f196da883-1" source="FH-egheK_HizLAxa6WL1-67" target="FH-egheK_HizLAxa6WL1-71">
          <mxGeometry relative="1" as="geometry" />
        </mxCell>
        <mxCell id="FH-egheK_HizLAxa6WL1-75" style="edgeStyle=orthogonalEdgeStyle;rounded=0;orthogonalLoop=1;jettySize=auto;html=1;exitX=0.5;exitY=1;exitDx=0;exitDy=0;entryX=0.5;entryY=0;entryDx=0;entryDy=0;" edge="1" parent="77e6c97f196da883-1" source="FH-egheK_HizLAxa6WL1-71" target="FH-egheK_HizLAxa6WL1-73">
          <mxGeometry relative="1" as="geometry" />
        </mxCell>
        <mxCell id="FH-egheK_HizLAxa6WL1-79" value="" style="edgeStyle=orthogonalEdgeStyle;rounded=0;orthogonalLoop=1;jettySize=auto;html=1;" edge="1" parent="77e6c97f196da883-1" source="FH-egheK_HizLAxa6WL1-76" target="FH-egheK_HizLAxa6WL1-78">
          <mxGeometry relative="1" as="geometry" />
        </mxCell>
        <mxCell id="FH-egheK_HizLAxa6WL1-82" style="edgeStyle=orthogonalEdgeStyle;rounded=0;orthogonalLoop=1;jettySize=auto;html=1;exitX=0;exitY=0.5;exitDx=0;exitDy=0;entryX=0.5;entryY=1;entryDx=0;entryDy=0;" edge="1" parent="77e6c97f196da883-1" source="FH-egheK_HizLAxa6WL1-80" target="FH-egheK_HizLAxa6WL1-76">
          <mxGeometry relative="1" as="geometry" />
        </mxCell>
        <mxCell id="FH-egheK_HizLAxa6WL1-83" value="No" style="edgeLabel;html=1;align=center;verticalAlign=middle;resizable=0;points=[];" vertex="1" connectable="0" parent="FH-egheK_HizLAxa6WL1-82">
          <mxGeometry x="-0.8302" relative="1" as="geometry">
            <mxPoint x="-1" as="offset" />
          </mxGeometry>
        </mxCell>
        <mxCell id="FH-egheK_HizLAxa6WL1-87" value="" style="edgeStyle=orthogonalEdgeStyle;rounded=0;orthogonalLoop=1;jettySize=auto;html=1;" edge="1" parent="77e6c97f196da883-1" source="FH-egheK_HizLAxa6WL1-84" target="FH-egheK_HizLAxa6WL1-86">
          <mxGeometry relative="1" as="geometry" />
        </mxCell>
        <mxCell id="FH-egheK_HizLAxa6WL1-91" value="" style="edgeStyle=orthogonalEdgeStyle;rounded=0;orthogonalLoop=1;jettySize=auto;html=1;" edge="1" parent="77e6c97f196da883-1" source="FH-egheK_HizLAxa6WL1-88" target="FH-egheK_HizLAxa6WL1-90">
          <mxGeometry relative="1" as="geometry" />
        </mxCell>
        <mxCell id="FH-egheK_HizLAxa6WL1-94" style="edgeStyle=orthogonalEdgeStyle;rounded=0;orthogonalLoop=1;jettySize=auto;html=1;exitX=0.5;exitY=1;exitDx=0;exitDy=0;entryX=0;entryY=0.5;entryDx=0;entryDy=0;" edge="1" parent="77e6c97f196da883-1" source="FH-egheK_HizLAxa6WL1-88" target="FH-egheK_HizLAxa6WL1-92">
          <mxGeometry relative="1" as="geometry" />
        </mxCell>
        <mxCell id="FH-egheK_HizLAxa6WL1-97" style="edgeStyle=orthogonalEdgeStyle;rounded=0;orthogonalLoop=1;jettySize=auto;html=1;exitX=0.5;exitY=1;exitDx=0;exitDy=0;entryX=0.5;entryY=0;entryDx=0;entryDy=0;" edge="1" parent="77e6c97f196da883-1" source="FH-egheK_HizLAxa6WL1-92" target="FH-egheK_HizLAxa6WL1-95">
          <mxGeometry relative="1" as="geometry" />
        </mxCell>
        <mxCell id="FH-egheK_HizLAxa6WL1-101" value="" style="edgeStyle=orthogonalEdgeStyle;rounded=0;orthogonalLoop=1;jettySize=auto;html=1;" edge="1" parent="77e6c97f196da883-1" source="FH-egheK_HizLAxa6WL1-95" target="FH-egheK_HizLAxa6WL1-100">
          <mxGeometry relative="1" as="geometry" />
        </mxCell>
        <mxCell id="FH-egheK_HizLAxa6WL1-103" value="" style="edgeStyle=orthogonalEdgeStyle;rounded=0;orthogonalLoop=1;jettySize=auto;html=1;" edge="1" parent="77e6c97f196da883-1" source="FH-egheK_HizLAxa6WL1-100" target="FH-egheK_HizLAxa6WL1-102">
          <mxGeometry relative="1" as="geometry" />
        </mxCell>
      </root>
    </mxGraphModel>
  </diagram>
</mxfile>
